<svg width="769" height="799" viewBox="0 0 769 799" fill="none" xmlns="http://www.w3.org/2000/svg">
<path d="M105 290.76L302.5 682.26L319.5 703.76L358 719.76L406 736.26L458.5 712.76L499.5 682.26L302.5 290.76L105 290.76Z" fill="#43D9B8"/>
<path d="M105 290.76L302.5 682.26L319.5 703.76L358 719.76L406 736.26L458.5 712.76L499.5 682.26L302.5 290.76L105 290.76Z" fill="url(#paint0_linear_73_23)" fill-opacity="0.8"/>
<path d="M663.5 501.657L466 110.157L449 88.6567L410.5 72.6567L362.5 56.1567L310 79.6567L269 110.157L466 501.657H663.5Z" fill="#43D9B8"/>
<path d="M663.5 501.657L466 110.157L449 88.6567L410.5 72.6567L362.5 56.1567L310 79.6567L269 110.157L466 501.657H663.5Z" fill="url(#paint1_linear_73_23)" fill-opacity="0.8"/>
<g filter="url(#filter0_d_73_23)">
<path d="M561.724 679.657L758.724 289.157L561.724 289.157L365.724 679.657C356.557 698.824 330.124 723.657 301.724 677.657C394.724 863.157 524.557 768.49 561.724 679.657Z" fill="#43D9B8"/>
</g>
<g filter="url(#filter1_d_73_23)">
<path d="M207 110.657L10 501.157H207L403 110.657C412.167 91.4899 438.6 66.6567 467 112.657C374 -72.8432 244.167 21.8233 207 110.657Z" fill="#43D9B8"/>
</g>
<defs>
<filter id="filter0_d_73_23" x="291.724" y="283.157" width="477" height="515.157" filterUnits="userSpaceOnUse" color-interpolation-filters="sRGB">
<feFlood flood-opacity="0" result="BackgroundImageFix"/>
<feColorMatrix in="SourceAlpha" type="matrix" values="0 0 0 0 0 0 0 0 0 0 0 0 0 0 0 0 0 0 127 0" result="hardAlpha"/>
<feOffset dy="4"/>
<feGaussianBlur stdDeviation="5"/>
<feComposite in2="hardAlpha" operator="out"/>
<feColorMatrix type="matrix" values="0 0 0 0 0 0 0 0 0 0 0 0 0 0 0 0 0 0 0.25 0"/>
<feBlend mode="normal" in2="BackgroundImageFix" result="effect1_dropShadow_73_23"/>
<feBlend mode="normal" in="SourceGraphic" in2="effect1_dropShadow_73_23" result="shape"/>
</filter>
<filter id="filter1_d_73_23" x="0" y="0" width="477" height="515.157" filterUnits="userSpaceOnUse" color-interpolation-filters="sRGB">
<feFlood flood-opacity="0" result="BackgroundImageFix"/>
<feColorMatrix in="SourceAlpha" type="matrix" values="0 0 0 0 0 0 0 0 0 0 0 0 0 0 0 0 0 0 127 0" result="hardAlpha"/>
<feOffset dy="4"/>
<feGaussianBlur stdDeviation="5"/>
<feComposite in2="hardAlpha" operator="out"/>
<feColorMatrix type="matrix" values="0 0 0 0 0 0 0 0 0 0 0 0 0 0 0 0 0 0 0.25 0"/>
<feBlend mode="normal" in2="BackgroundImageFix" result="effect1_dropShadow_73_23"/>
<feBlend mode="normal" in="SourceGraphic" in2="effect1_dropShadow_73_23" result="shape"/>
</filter>
<linearGradient id="paint0_linear_73_23" x1="187.5" y1="277.26" x2="468.5" y2="723.26" gradientUnits="userSpaceOnUse">
<stop offset="0.209858" stop-color="#0F052F"/>
<stop offset="0.484424" stop-color="#47377C"/>
<stop offset="1" stop-color="white"/>
</linearGradient>
<linearGradient id="paint1_linear_73_23" x1="581" y1="515.157" x2="300" y2="69.1567" gradientUnits="userSpaceOnUse">
<stop offset="0.209858" stop-color="#0F052F"/>
<stop offset="0.484424" stop-color="#47377C"/>
<stop offset="1" stop-color="white"/>
</linearGradient>
</defs>
</svg>
